<svg xmlns="http://www.w3.org/2000/svg" viewBox="0 0 128 128">
  <defs>
    <linearGradient id="bg" x1="0%" y1="0%" x2="100%" y2="100%">
      <stop offset="0%" style="stop-color:#4a9eff"/>
      <stop offset="100%" style="stop-color:#2d7ad6"/>
    </linearGradient>
    <linearGradient id="fold" x1="0%" y1="0%" x2="100%" y2="100%">
      <stop offset="0%" style="stop-color:#3a8eef"/>
      <stop offset="100%" style="stop-color:#1a6ac0"/>
    </linearGradient>
  </defs>
  <!-- Document shape with folded corner -->
  <path d="M20 8 C20 4, 24 0, 28 0 L88 0 L108 20 L108 120 C108 124, 104 128, 100 128 L28 128 C24 128, 20 124, 20 120 Z" fill="url(#bg)"/>
  <!-- Folded corner -->
  <path d="M88 0 L88 20 L108 20 Z" fill="url(#fold)" opacity="0.6"/>
  <!-- MD text -->
  <text x="54" y="72" font-family="'Segoe UI','Helvetica Neue',Arial,sans-serif" font-weight="800" font-size="40" fill="white" text-anchor="middle" letter-spacing="-1">MD</text>
  <!-- Pencil icon at bottom right -->
  <g transform="translate(78,82) scale(0.8)">
    <rect x="0" y="12" width="4" height="24" rx="1" fill="white" opacity="0.9" transform="rotate(-45, 2, 24)"/>
    <polygon points="0,12 4,4 8,8 4,16" fill="white" opacity="0.9" transform="rotate(-45, 4, 10)"/>
  </g>
</svg>
